name analog
datacolumns 19
datarows 57
range 0.161 0.189
endheader
time	ground_force_vx	ground_force_vy	ground_force_vz	ground_force_px	ground_force_py	ground_force_pz	l_ground_force_vx	l_ground_force_vy	l_ground_force_vz	l_ground_force_px	l_ground_force_py	l_ground_force_pz	ground_torque_x	ground_torque_y	ground_torque_z	l_ground_torque_x	l_ground_torque_y	l_ground_torque_z
0.161	-0.0	-0.0	-0.0	-0.0	-0.0	-0.0	-0.7232587337493896	-4.869115829467773	-739.4580078125	-0.0	-0.0	-0.0	-0.0	-0.0	-0.0	255763.484375	-2702.610107421875	1964.45068359375
0.1615	-0.0	-0.0	-0.0	-0.0	-0.0	-0.0	-0.3548431396484375	-5.310482501983643	-734.7233276367188	-0.0	-0.0	-0.0	-0.0	-0.0	-0.0	254812.984375	-2781.74560546875	2176.827880859375
0.162	-0.0	-0.0	-0.0	-0.0	-0.0	-0.0	-0.5960626006126404	-6.129892826080322	-731.82177734375	-0.0	-0.0	-0.0	-0.0	-0.0	-0.0	253187.375	-2781.187255859375	2061.4990234375
0.1625	-0.0	-0.0	-0.0	-0.0	-0.0	-0.0	-1.3803914785385132	-6.903145790100098	-729.1687622070312	-0.0	-0.0	-0.0	-0.0	-0.0	-0.0	251963.53125	-2469.212646484375	1730.8140869140625
0.163	-0.0	-0.0	-0.0	-0.0	-0.0	-0.0	-2.1786675453186035	-6.69821310043335	-725.8299560546875	-0.0	-0.0	-0.0	-0.0	-0.0	-0.0	251007.125	-2179.185791015625	1383.932373046875
0.1635	-0.0	-0.0	-0.0	-0.0	-0.0	-0.0	-2.9376728534698486	-7.030939102172852	-724.0431518554688	-0.0	-0.0	-0.0	-0.0	-0.0	-0.0	250012.4375	-1940.1717529296875	1233.744384765625
0.164	-0.0	-0.0	-0.0	-0.0	-0.0	-0.0	-3.0161666870117188	-6.511229038238525	-722.4341430664062	-0.0	-0.0	-0.0	-0.0	-0.0	-0.0	249369.859375	-2100.243408203125	953.704345703125
0.1645	-0.0	-0.0	-0.0	-0.0	-0.0	-0.0	-3.376104593276977	-6.030384540557861	-722.2977905273438	-0.0	-0.0	-0.0	-0.0	-0.0	-0.0	249394.484375	-2175.077392578125	940.3486328125
0.165	-0.0	-0.0	-0.0	-0.0	-0.0	-0.0	-2.8387451171875	-5.740909576416016	-721.384765625	-0.0	-0.0	-0.0	-0.0	-0.0	-0.0	249719.21875	-2200.390869140625	938.9166259765624
0.1655	-0.0	-0.0	-0.0	-0.0	-0.0	-0.0	-1.74971342086792	-5.049473285675049	-721.8526611328125	-0.0	-0.0	-0.0	-0.0	-0.0	-0.0	249593.0	-2657.4658203125	1134.8746337890625
0.166	-0.0	-0.0	-0.0	-0.0	-0.0	-0.0	-0.5811243653297424	-4.254794597625732	-720.8310546875	-0.0	-0.0	-0.0	-0.0	-0.0	-0.0	248990.578125	-3217.12451171875	1419.367431640625
0.1665	-0.0	-0.0	-0.0	-0.0	-0.0	-0.0	0.3548431396484375	-3.164081335067749	-718.7459716796875	-0.0	-0.0	-0.0	-0.0	-0.0	-0.0	248526.109375	-3568.80322265625	1622.8179931640625
0.167	-0.0	-0.0	-0.0	-0.0	-0.0	-0.0	1.015888810157776	-2.7863993644714355	-717.0617065429688	-0.0	-0.0	-0.0	-0.0	-0.0	-0.0	247406.34375	-3875.9716796875	1906.645751953125
0.1675	-0.0	-0.0	-0.0	-0.0	-0.0	-0.0	1.2017358541488647	-2.85867977142334	-712.7138671875	-0.0	-0.0	-0.0	-0.0	-0.0	-0.0	246164.703125	-4432.6689453125	1920.182861328125
0.168	-0.0	-0.0	-0.0	-0.0	-0.0	-0.0	1.5887058973312378	-2.6897850036621094	-710.4283447265625	-0.0	-0.0	-0.0	-0.0	-0.0	-0.0	244911.421875	-4602.30029296875	1880.0562744140625
0.1685	-0.0	-0.0	-0.0	-0.0	-0.0	-0.0	1.8629264831542969	-2.78602147102356	-707.5404052734375	-0.0	-0.0	-0.0	-0.0	-0.0	-0.0	243954.75	-5095.642578125	1756.252685546875
0.169	-0.0	-0.0	-0.0	-0.0	-0.0	-0.0	1.4915722608566284	-2.9296603202819824	-705.4404907226562	-0.0	-0.0	-0.0	-0.0	-0.0	-0.0	243360.65625	-5470.78173828125	1526.7513427734375
0.1695	-0.0	-0.0	-0.0	-0.0	-0.0	-0.0	1.4840648174285889	-2.8262939453125	-705.1917114257812	-0.0	-0.0	-0.0	-0.0	-0.0	-0.0	243042.53125	-5793.55908203125	1518.77294921875
0.17	-0.0	-0.0	-0.0	-0.0	-0.0	-0.0	2.129058837890625	-2.136518955230713	-703.3798828125	-0.0	-0.0	-0.0	-0.0	-0.0	-0.0	243033.375	-6203.2001953125	1516.2027587890625
0.1705	-0.0	-0.0	-0.0	-0.0	-0.0	-0.0	3.316334009170532	-0.5367802381515503	-704.7490234375	-0.0	-0.0	-0.0	-0.0	-0.0	-0.0	243461.359375	-6513.09619140625	1628.053955078125
0.171	-0.0	-0.0	-0.0	-0.0	-0.0	-0.0	3.5550696849823	0.5813006162643433	-706.682861328125	-0.0	-0.0	-0.0	-0.0	-0.0	-0.0	243893.4375	-6790.38427734375	1857.788330078125
0.1715	-0.0	-0.0	-0.0	-0.0	-0.0	-0.0	3.7020881175994873	1.5188086032867432	-707.031982421875	-0.0	-0.0	-0.0	-0.0	-0.0	-0.0	243938.4375	-6770.8876953125	1693.8690185546875
0.17200000000000001	-0.0	-0.0	-0.0	-0.0	-0.0	-0.0	2.933612108230591	1.8311426639556885	-707.6370239257812	-0.0	-0.0	-0.0	-0.0	-0.0	-0.0	244282.4375	-6797.67529296875	1240.5106201171875
0.17250000000000001	-0.0	-0.0	-0.0	-0.0	-0.0	-0.0	2.0108213424682617	2.096176624298096	-709.0338745117188	-0.0	-0.0	-0.0	-0.0	-0.0	-0.0	243758.390625	-6472.2001953125	876.0687255859375
0.17300000000000001	-0.0	-0.0	-0.0	-0.0	-0.0	-0.0	0.4491785764694214	1.4366273880004885	-705.7282104492188	-0.0	-0.0	-0.0	-0.0	-0.0	-0.0	243823.515625	-6222.0947265625	184.67398071289065
0.17350000000000002	-0.0	-0.0	-0.0	-0.0	-0.0	-0.0	-0.9993544816970824	1.1716145277023315	-706.8895263671875	-0.0	-0.0	-0.0	-0.0	-0.0	-0.0	243443.046875	-6341.1357421875	-328.5341491699219
0.17400000000000002	-0.0	-0.0	-0.0	-0.0	-0.0	-0.0	-2.8204245567321777	0.7299339771270752	-706.2616577148438	-0.0	-0.0	-0.0	-0.0	-0.0	-0.0	243748.78125	-6014.46484375	-1196.22802734375
0.17450000000000002	-0.0	-0.0	-0.0	-0.0	-0.0	-0.0	-4.25811767578125	0.9997779130935668	-707.6576538085938	-0.0	-0.0	-0.0	-0.0	-0.0	-0.0	243905.515625	-6050.6953125	-1634.296630859375
0.17500000000000002	-0.0	-0.0	-0.0	-0.0	-0.0	-0.0	-5.121870994567871	1.1761201620101929	-709.641357421875	-0.0	-0.0	-0.0	-0.0	-0.0	-0.0	244491.203125	-6051.8505859375	-2161.00927734375
0.17550000000000002	-0.0	-0.0	-0.0	-0.0	-0.0	-0.0	-4.860228538513184	1.7056896686553955	-710.706787109375	-0.0	-0.0	-0.0	-0.0	-0.0	-0.0	244973.328125	-6530.080078125	-2302.724853515625
0.176	-0.0	-0.0	-0.0	-0.0	-0.0	-0.0	-4.501016139984131	1.8778873682022093	-713.241943359375	-0.0	-0.0	-0.0	-0.0	-0.0	-0.0	245820.609375	-7020.68994140625	-2365.25244140625
0.1765	-0.0	-0.0	-0.0	-0.0	-0.0	-0.0	-4.099913120269775	2.250237941741944	-715.9276123046875	-0.0	-0.0	-0.0	-0.0	-0.0	-0.0	246726.265625	-7594.650390625	-2250.38525390625
0.177	-0.0	-0.0	-0.0	-0.0	-0.0	-0.0	-3.436619520187378	2.365362882614136	-717.855712890625	-0.0	-0.0	-0.0	-0.0	-0.0	-0.0	247909.6875	-8386.91796875	-2301.423828125
0.1775	-0.0	-0.0	-0.0	-0.0	-0.0	-0.0	-2.576113700866699	1.9625433683395384	-719.96435546875	-0.0	-0.0	-0.0	-0.0	-0.0	-0.0	248647.78125	-9676.634765625	-2151.39111328125
0.178	-0.0	-0.0	-0.0	-0.0	-0.0	-0.0	-1.3306617736816406	2.7379722595214844	-723.105712890625	-0.0	-0.0	-0.0	-0.0	-0.0	-0.0	249465.078125	-11028.83984375	-2017.405517578125
0.1785	-0.0	-0.0	-0.0	-0.0	-0.0	-0.0	0.2890645861625671	2.977100610733032	-727.5416870117188	-0.0	-0.0	-0.0	-0.0	-0.0	-0.0	250376.828125	-12439.6103515625	-1555.8956298828125
0.179	-0.0	-0.0	-0.0	-0.0	-0.0	-0.0	2.37509560585022	3.512860059738159	-728.2402954101562	-0.0	-0.0	-0.0	-0.0	-0.0	-0.0	250941.796875	-13808.1884765625	-1028.0118408203125
0.1795	-0.0	-0.0	-0.0	-0.0	-0.0	-0.0	4.483624458312988	3.684335947036743	-730.2653198242188	-0.0	-0.0	-0.0	-0.0	-0.0	-0.0	251559.953125	-15449.236328125	-410.3405151367188
0.18	-0.0	-0.0	-0.0	-0.0	-0.0	-0.0	6.49863862991333	3.2225992679595947	-735.492431640625	-0.0	-0.0	-0.0	-0.0	-0.0	-0.0	252692.890625	-16659.40234375	139.3122100830078
0.1805	-0.0	-0.0	-0.0	-0.0	-0.0	-0.0	7.158857345581055	2.0745553970336914	-735.0613403320312	-0.0	-0.0	-0.0	-0.0	-0.0	-0.0	252908.28125	-17261.439453125	347.092041015625
0.181	-0.0	-0.0	-0.0	-0.0	-0.0	-0.0	6.477650165557861	1.2365036010742188	-736.271728515625	-0.0	-0.0	-0.0	-0.0	-0.0	-0.0	253020.046875	-17416.341796875	189.28955078125
0.1815	-0.0	-0.0	-0.0	-0.0	-0.0	-0.0	5.079085350036621	1.3697680234909058	-735.1294555664062	-0.0	-0.0	-0.0	-0.0	-0.0	-0.0	252367.359375	-17419.869140625	-285.1329040527344
0.182	-0.0	-0.0	-0.0	-0.0	-0.0	-0.0	2.681259632110596	1.2813020944595337	-733.2183837890625	-0.0	-0.0	-0.0	-0.0	-0.0	-0.0	251843.9375	-17058.154296875	-1184.7574462890625
0.1825	-0.0	-0.0	-0.0	-0.0	-0.0	-0.0	0.7534983158111572	1.0811291933059692	-732.9490356445312	-0.0	-0.0	-0.0	-0.0	-0.0	-0.0	251342.5625	-16597.236328125	-1986.68017578125
0.183	-0.0	-0.0	-0.0	-0.0	-0.0	-0.0	-1.175628900527954	0.4416084289550781	-732.259033203125	-0.0	-0.0	-0.0	-0.0	-0.0	-0.0	251295.53125	-16355.8828125	-2625.850341796875
0.1835	-0.0	-0.0	-0.0	-0.0	-0.0	-0.0	-2.528534412384033	-0.0438849627971649	-733.916748046875	-0.0	-0.0	-0.0	-0.0	-0.0	-0.0	251918.125	-15892.5927734375	-3042.281005859375
0.184	-0.0	-0.0	-0.0	-0.0	-0.0	-0.0	-3.947448968887329	-0.0886819288134574	-737.58203125	-0.0	-0.0	-0.0	-0.0	-0.0	-0.0	253012.203125	-15940.6796875	-3495.740478515625
0.1845	-0.0	-0.0	-0.0	-0.0	-0.0	-0.0	-4.546364784240723	-0.6846389770507812	-743.5182495117188	-0.0	-0.0	-0.0	-0.0	-0.0	-0.0	254600.703125	-16059.8486328125	-3570.487060546875
0.185	-0.0	-0.0	-0.0	-0.0	-0.0	-0.0	-5.211630344390869	-0.397362470626831	-746.9224243164062	-0.0	-0.0	-0.0	-0.0	-0.0	-0.0	256683.265625	-15921.4208984375	-4001.051025390625
0.1855	-0.0	-0.0	-0.0	-0.0	-0.0	-0.0	-5.810738563537598	-0.1989956498146057	-753.8211669921875	-0.0	-0.0	-0.0	-0.0	-0.0	-0.0	258294.53125	-16097.99609375	-4067.9130859375
0.186	-0.0	-0.0	-0.0	-0.0	-0.0	-0.0	-6.209754943847656	0.287533700466156	-755.997314453125	-0.0	-0.0	-0.0	-0.0	-0.0	-0.0	259424.65625	-16119.8408203125	-4357.37744140625
0.1865	-0.0	-0.0	-0.0	-0.0	-0.0	-0.0	-6.852696418762207	0.5736697316169739	-760.1064453125	-0.0	-0.0	-0.0	-0.0	-0.0	-0.0	260054.359375	-16226.98828125	-4647.0087890625
0.187	-0.0	-0.0	-0.0	-0.0	-0.0	-0.0	-7.185573577880859	1.0598602294921875	-761.1505126953125	-0.0	-0.0	-0.0	-0.0	-0.0	-0.0	261367.03125	-16477.146484375	-4661.7314453125
0.1875	-0.0	-0.0	-0.0	-0.0	-0.0	-0.0	-7.207406520843506	1.2596136331558228	-761.4996337890625	-0.0	-0.0	-0.0	-0.0	-0.0	-0.0	261784.0625	-16726.03125	-4743.29052734375
0.188	-0.0	-0.0	-0.0	-0.0	-0.0	-0.0	-7.316283226013184	1.1931248903274536	-761.2362670898438	-0.0	-0.0	-0.0	-0.0	-0.0	-0.0	261589.484375	-17198.52734375	-4854.7080078125
0.1885	-0.0	-0.0	-0.0	-0.0	-0.0	-0.0	-7.05158281326294	1.1463408470153809	-762.725341796875	-0.0	-0.0	-0.0	-0.0	-0.0	-0.0	262286.9375	-17545.755859375	-4928.95458984375
0.189	-0.0	-0.0	-0.0	-0.0	-0.0	-0.0	-6.81118106842041	1.6996691226959229	-763.0667114257812	-0.0	-0.0	-0.0	-0.0	-0.0	-0.0	262570.59375	-18114.0546875	-4788.26611328125
